<svg width="482" height="38" viewBox="0 0 482 38" fill="none" xmlns="http://www.w3.org/2000/svg">
<path d="M40.7678 17.2322C41.7441 18.2085 41.7441 19.7915 40.7678 20.7678L24.8579 36.6777C23.8816 37.654 22.2986 37.654 21.3223 36.6777C20.346 35.7014 20.346 34.1184 21.3223 33.1421L35.4645 19L21.3223 4.85786C20.346 3.88155 20.346 2.29864 21.3223 1.32233C22.2986 0.34602 23.8816 0.34602 24.8579 1.32233L40.7678 17.2322ZM481.268 17.2322C482.244 18.2085 482.244 19.7915 481.268 20.7678L465.358 36.6777C464.382 37.654 462.799 37.654 461.822 36.6777C460.846 35.7014 460.846 34.1184 461.822 33.1421L475.964 19L461.822 4.85786C460.846 3.88155 460.846 2.29864 461.822 1.32233C462.799 0.34602 464.382 0.34602 465.358 1.32233L481.268 17.2322ZM0 16.5L39 16.5V21.5L0 21.5L0 16.5ZM440.5 16.5L479.5 16.5V21.5L440.5 21.5V16.5Z" fill="#FFC200"/>
</svg>
