<svg width="51" height="59" viewBox="0 0 51 59" fill="none" xmlns="http://www.w3.org/2000/svg">
<path d="M45.5357 29.5001H17.3036V17.6194C17.3036 13.0561 20.9123 9.26494 25.4203 9.21885C29.9739 9.17275 33.6964 12.9179 33.6964 17.5157V19.3595C33.6964 20.8921 34.9145 22.1251 36.4286 22.1251H40.0714C41.5855 22.1251 42.8036 20.8921 42.8036 19.3595V17.5157C42.8036 7.83604 35.0056 -0.0344568 25.4431 0.00011345C15.8806 0.0346837 8.19643 8.00889 8.19643 17.6886V29.5001H5.46429C2.44754 29.5001 0 31.9776 0 35.0313V53.4688C0 56.5225 2.44754 59 5.46429 59H45.5357C48.5525 59 51 56.5225 51 53.4688V35.0313C51 31.9776 48.5525 29.5001 45.5357 29.5001ZM30.0536 47.0156C30.0536 49.5623 28.0158 51.625 25.5 51.625C22.9842 51.625 20.9464 49.5623 20.9464 47.0156V41.4844C20.9464 38.9377 22.9842 36.875 25.5 36.875C28.0158 36.875 30.0536 38.9377 30.0536 41.4844V47.0156Z" fill="white"/>
</svg>
